<?xml version="1.0" encoding="UTF-8"?><svg id="Ebene_1" xmlns="http://www.w3.org/2000/svg" xmlns:xlink="http://www.w3.org/1999/xlink" viewBox="0 0 1080 1080"><defs><style>.cls-1{fill:#e39b4d;}.cls-2{fill:#0f0f0f;}.cls-3{clip-path:url(#clippath-2);}.cls-4{opacity:.98;}.cls-5{fill:#925628;}.cls-6{opacity:.49;}.cls-7{opacity:.92;}.cls-8{fill:#a26329;}.cls-9{clip-path:url(#clippath-1);}.cls-10{opacity:.63;}.cls-11{opacity:.76;}.cls-12{fill:#bb7731;}.cls-13{clip-path:url(#clippath);}.cls-14{fill:none;}.cls-15{fill:#54371c;}.cls-16{clip-path:url(#clippath-3);}.cls-17{fill:#8c6441;}.cls-18{fill:#bac7ff;}.cls-19{fill:#2d130a;}</style><clipPath id="clippath"><circle class="cls-14" cx="-599.5" cy="514.49" r="363.71"/></clipPath><clipPath id="clippath-1"><rect class="cls-14" x="-964.3" y="-26.21" width="744.62" height="1116.92"/></clipPath><clipPath id="clippath-2"><path class="cls-14" d="m346.49,716.75c-12.71.54-25.69.2-38.32-1.17-11.9-1.29-23.84-3.46-35.14-9.22-9.75-4.97-18.73-12.86-25.74-22.68-7.92-11.1-13.18-25.37-15.84-40.16-8.78-47.87-17.55-95.74-26.33-143.61-2.38-17.99-2.47-33.42,1.6-50.11,3.74-15.33,12.04-30.56,22.27-41.16,11.49-11.89,24.29-21.43,37.36-29.29,14.23-8.56,29.6-15.85,45.23-20.54,15.3-4.6,30.95-7.73,46.43-10.04,47.07-7.05,94.89-7.25,142.48-1.1.37,21.49.74,42.97,1.11,64.46-45.72-10.25-92.82-10.1-138.14-3.11-27.3,4.21-87.74,16.96-80.44,69.21,6.47,46.81,12.94,93.61,19.41,140.42,2.52,16.68,12.96,28.84,25.72,32.11,20.35,5.21,42.93,2.87,63.61-.05,16.07-2.27,31.72-7.65,47.25-13.82-1.57-27.43-3.15-54.86-4.72-82.28-16.97,1.68-33.9,3.68-50.82,6.02-1.6-18.46-3.21-36.93-4.81-55.39,42.02-5.78,84.09-9.34,126.33-10.67.99,61.37,1.98,122.73,2.97,184.1-18.19,8.49-37.16,14.27-55.93,19.51-20.44,5.71-41.33,10.66-62.06,13.84-14.35,2.2-29.09,4.13-43.51,4.75l.03-.02Z"/></clipPath><clipPath id="clippath-3"><path class="cls-14" d="m580,331.1c50.35,1.77,100.47,6.45,150.49,14.05,32.56,5.49,66.31,12.37,96.09,28.87,17.96,9.95,36.17,23.49,46.23,46.42,9.17,20.9,8.75,46.23,4.48,69.01-8.71,47.5-17.42,94.99-26.13,142.49-4.53,21.14-10.71,43.57-24.37,57.96-13.49,14.19-30.8,18.26-47.45,19.7-27,2.33-55.21-3.03-82.43-7.19-41.09-6.22-82.24-10.07-123.6-11.57,2.23-119.91,4.47-239.83,6.7-359.74h0Zm119.51,309.72c14.84,2.34,30.23,4.31,44.85,4.82,7.07.25,17.12-1.61,23.22-7.21,5.25-4.83,8.78-13.42,10.49-25.79,6.72-48.59,13.44-97.18,20.15-145.77,2.94-16.04-3.83-31.15-14.15-39.37-17.52-13.96-39.69-17.76-59.93-21.33-20.9-3.17-41.8-5.86-62.77-8.09-4.86,78.67-9.72,157.34-14.58,236.01,17.61,1.87,35.17,4.12,52.72,6.73h0Z"/></clipPath></defs><g id="Logo-Blue"><g class="cls-13"><g class="cls-9"><g class="cls-6"><g class="cls-4"><path class="cls-18" d="m48.89,223.11c1.13.33.63,2.09-.51,1.76-1.13-.33-.63-2.09.51-1.76h0Z"/></g><g class="cls-11"><path class="cls-18" d="m29.32,299.43c1.41.47.68,2.66-.73,2.19s-.68-2.66.73-2.19h0Z"/></g></g><g class="cls-10"><g class="cls-7"><path class="cls-18" d="m11.13,298.83c1.33.17,1.06,2.24-.27,2.07-1.33-.17-1.06-2.24.27-2.07h0Z"/></g><path class="cls-18" d="m66.66,145.81c1.41.18,1.12,2.37-.29,2.19s-1.12-2.37.29-2.19h0Z"/></g></g></g></g><g id="Robim-small"><path class="cls-17" d="m917.48,792.36c-248.54-67.95-506.43-67.95-754.97,0-30.47-147.09-60.95-294.18-91.42-441.27,308.44-84.61,629.37-84.61,937.81,0-30.47,147.09-60.95,294.18-91.42,441.27h0Z"/><path class="cls-15" d="m892.63,767.61c-232.18-61.29-473.09-61.29-705.27,0-28.46-132.66-56.93-265.32-85.4-397.99,288.13-76.31,587.93-76.31,876.07,0-28.47,132.66-56.94,265.32-85.4,397.99h0Z"/><path class="cls-19" d="m854.84,718.33c-207.3-50.68-422.39-50.68-629.69,0-25.41-109.69-50.83-219.39-76.25-329.08,257.26-63.1,524.93-63.1,782.19,0-25.42,109.69-50.83,219.39-76.25,329.08Z"/><path class="cls-2" d="m332.14,751.22c-10.57,0-20.97-.55-31.06-1.64-12.66-1.37-27.54-3.75-41.87-11.06-12.11-6.17-23.08-15.84-31.73-27.98-9.35-13.11-16.13-30.24-19.6-49.53l-29.99-163.55-.03-.27c-3.16-23.94-2.56-42.18,2.03-60.97,4.66-19.08,14.68-37.63,27.5-50.91,12.45-12.89,26.79-24.14,43.85-34.41,17.84-10.73,35.58-18.79,52.76-23.95,15.94-4.79,33.46-8.58,53.55-11.59,53.26-7.98,108.27-8.4,163.49-1.27l5.88.76-4.65,124.16-8.01-1.79c-49.29-8.87-81.46-7.98-126.5-.28-42.29,7.23-66.22,10.37-72.44,20.44-5.21,8.43-6.63,14.68-5.04,26.07l12.44,103.11c2.27,14.88,2.77,24.35,12.44,32.59,8,6.81,21,8.63,38.5,6.32s27.99-4.08,42.25-9.59l-2.97-44.73c-16.98,1.76-30.4,4.49-47.24,6.82l-6.62.92-7.61-86.78,6.67-.92c47.73-6.57,118.94-15.2,166.91-16.72l6.7-.21,3.9,230.72-4.49,2.1c-19.91,9.29-40.17,15.72-64.47,22.5-26.5,7.4-49.79,12.59-71.2,15.88-13.96,2.14-32.27,4.7-50.06,5.46h0c-4.46.19-8.89.29-13.3.29h0Z"/><path class="cls-1" d="m346.49,716.75c-12.71.54-25.69.2-38.32-1.17-11.9-1.29-23.84-3.46-35.14-9.22-9.75-4.97-18.73-12.86-25.74-22.68-7.92-11.1-13.18-25.37-15.84-40.16-8.78-47.87-17.55-95.74-26.33-143.61-2.38-17.99-2.47-33.42,1.6-50.11,3.74-15.33,12.04-30.56,22.27-41.16,11.49-11.89,24.29-21.43,37.36-29.29,14.23-8.56,29.6-15.85,45.23-20.54,15.3-4.6,30.95-7.73,46.43-10.04,47.07-7.05,94.89-7.25,142.48-1.1.37,21.49.74,42.97,1.11,64.46-45.72-10.25-92.82-10.1-138.14-3.11-27.3,4.21-87.74,16.96-80.44,69.21,6.47,46.81,12.94,93.61,19.41,140.42,2.52,16.68,12.96,28.84,25.72,32.11,20.35,5.21,42.93,2.87,63.61-.05,16.07-2.27,31.72-7.65,47.25-13.82-1.57-27.43-3.15-54.86-4.72-82.28-16.97,1.68-33.9,3.68-50.82,6.02-1.6-18.46-3.21-36.93-4.81-55.39,42.02-5.78,84.09-9.34,126.33-10.67.99,61.37,1.98,122.73,2.97,184.1-18.19,8.49-37.16,14.27-55.93,19.51-20.44,5.71-41.33,10.66-62.06,13.84-14.35,2.2-29.09,4.13-43.51,4.75l.03-.02Z"/><g class="cls-3"><path class="cls-12" d="m171.95,716.43c20.09-.66,39.67-6.2,59.41-9.5,20.25-3.38,40.66-5.67,61.13-7.16,40.28-2.93,80.7-2.77,121.05-1.91,23.28.5,46.56,1.19,69.84,1.82,11.73-.04,21.85-3.76,30.36-11.18,10.72-5.94,19.04-14.5,24.96-25.66,7.81-12.17,12.97-25.29,15.48-39.36,4.74-15.16,6.64-30.76,5.7-46.8-1.21-10.7-2.42-21.41-3.63-32.11-3.73-19.1-10.98-36.74-21.75-52.91-5.52-6.18-11.03-12.35-16.55-18.53-11.59-10.23-25.1-15.42-40.52-15.54-81.01-2.18-162.85-6.33-243.31,5.87-22.64,3.43-45.16,10.13-68.12,10.88-11.73.04-21.85,3.76-30.36,11.18-10.72,5.94-19.04,14.5-24.96,25.66-7.81,12.17-12.97,25.29-15.48,39.36-4.74,15.16-6.64,30.76-5.7,46.8,1.21,10.7,2.42,21.41,3.63,32.11,3.73,19.1,10.98,36.74,21.75,52.91,13.95,18.13,32.36,34.88,57.07,34.07h0Z"/><path class="cls-12" d="m180.55,669.32c2.54-.63,5.09-1.24,7.64-1.83-7.01,1.61-14.01,3.23-21.02,4.84,27.6-6.31,55.71-10.25,84-11.52,14.73-.66,29.46-1.37,44.19-2.12,40.39-2.06,80.87-3.67,121.31-2.42,22.3.69,44.68,2.16,66.66,6.09,11.73-.04,21.85-3.76,30.36-11.18,10.72-5.94,19.04-14.5,24.96-25.66,7.81-12.17,12.97-25.29,15.48-39.36,4.74-15.16,6.64-30.76,5.7-46.8-1.21-10.7-2.42-21.41-3.63-32.11-3.73-19.1-10.98-36.74-21.75-52.91-5.52-6.18-11.03-12.35-16.55-18.53-11.59-10.23-25.1-15.42-40.52-15.54-41.38-7.39-84.17-7.12-126.05-6.13-34.43.82-68.79,3.11-103.2,4.45-39.32,1.53-77.43,8.93-115.57,18.32-11.15,4.92-19.98,12.36-26.49,22.33-9.18,9.83-15.73,21.31-19.63,34.46-5.54,14.65-8.32,29.73-8.33,45.23-1.97,16.15-1.1,32.22,2.6,48.23,2.91,9.57,5.81,19.15,8.72,28.72,6.51,16.59,16.37,30.83,29.58,42.72,6.43,3.91,12.86,7.82,19.28,11.74,14.23,5.42,28.31,5.07,42.25-1.04h0v.02Z"/><path class="cls-8" d="m170.56,753.35c56.95-2.23,113.91-4.46,170.89-5.98,28.48-.76,56.97-1.34,85.46-1.66,25.52-.28,51.07.15,76.59-.37,23.13-.47,46.54-1.44,69.44,2.48l-21.23-3.81c8.21,1.49,16.29,3.63,23.72,7.5,10.69,4.79,21.27,5.25,31.74,1.38,11.36-1.29,21.1-6.32,29.19-15.09,9.73-8.97,16.91-19.54,21.53-31.72,7.13-12.86,11.54-26.69,13.21-41.51.68-10.75,1.37-21.5,2.05-32.25-.41-21.04-4.53-41.32-12.35-60.83l-13.03-24.19c-8.97-13.66-20.91-23.75-35.83-30.27-14.64-7.63-33.32-9.66-49.04-11.96-11.25-1.65-22.65-2.13-34.01-2.23-24.04-.22-48.12.46-72.16.53-62.29.17-124.56,1.79-186.81,3.93-35.11,1.21-70.21,2.58-105.31,3.96-11.73.04-21.85,3.76-30.36,11.18-10.72,5.94-19.04,14.5-24.96,25.66-7.81,12.17-12.97,25.29-15.48,39.36-4.74,15.16-6.64,30.76-5.7,46.8,1.21,10.7,2.42,21.41,3.63,32.11,3.73,19.1,10.98,36.74,21.75,52.91,13.9,18.06,32.42,35.04,57.07,34.07h0Z"/><path class="cls-5" d="m221.51,831.31c21.99-.29,44.04-.16,66.01-1.13,10.64-.47,21.36-1.23,31.83-3.24,16.96-3.25,33.54-7.97,50.33-11.91-7.01,1.61-14.01,3.23-21.02,4.84,17.14-3.87,34.79-3.96,52.28-4.7,17.67-.74,35.35-1.32,53.03-2.02,34.03-1.36,68.09-3.21,101.84-7.91,25.81-3.59,51.24-9.2,76.53-15.48,11.15-4.92,19.98-12.36,26.49-22.33,9.18-9.83,15.73-21.31,19.63-34.46,5.54-14.65,8.32-29.73,8.33-45.23,1.97-16.15,1.1-32.22-2.6-48.23-2.91-9.57-5.81-19.15-8.72-28.72-6.51-16.59-16.37-30.83-29.58-42.72-6.43-3.91-12.86-7.82-19.28-11.74-14.23-5.42-28.31-5.07-42.25,1.04-2.99.74-5.98,1.46-8.99,2.16,7.01-1.61,14.01-3.23,21.02-4.84-71.08,16.2-144.18,15.59-216.61,19.1-10.62.51-21.26.79-31.72,2.86-16.65,3.29-32.94,7.87-49.44,11.74,7.01-1.61,14.01-3.23,21.02-4.84-17.01,3.84-34.48,4.64-51.86,4.98-17.4.35-34.81.48-52.21.71-11.73.04-21.85,3.76-30.36,11.18-10.72,5.94-19.04,14.5-24.96,25.66-7.81,12.17-12.97,25.29-15.48,39.36-4.74,15.16-6.64,30.76-5.7,46.8,1.21,10.7,2.42,21.41,3.63,32.11,3.73,19.1,10.98,36.74,21.75,52.91,14.14,18.37,32.21,34.4,57.07,34.07h0v-.02Z"/></g><path class="cls-2" d="m770.06,740.03c-22.03,0-44.41-3.52-66.19-6.96-3.72-.58-7.42-1.17-11.11-1.73-45.28-6.86-91.35-11.17-136.92-12.82l-6.6-.24,7.77-417.23,6.65.23c55.93,1.97,112.47,7.25,168.03,15.69,34.56,5.83,74.23,13.63,108.76,32.76,18.66,10.34,41.72,25.96,54.58,55.28,9.72,22.15,11.67,50.82,5.65,82.93l-29.12,158.8c-5.46,25.46-12.79,51.42-29.31,68.8-17.38,18.3-39.36,22.35-56.56,23.83-5.19.45-10.41.65-15.65.65h.02Zm-22.31-71.76c-.54,0-1.07,0-1.58-.03-14.07-.49-30.12-2.21-50.51-5.42-19.34-2.88-38.99-5.39-58.42-7.46l-6.58-.7,17.27-279.53,6.63.7c23.28,2.47,46.86,5.5,70.07,9.03l.82.14c22.54,3.98,48.08,8.49,68.58,24.81,14.99,11.94,22.33,32.62,18.74,52.73l-22.39,161.96c-2.2,15.92-7.02,27.4-14.33,34.12-7.76,7.14-19.41,9.64-28.29,9.64h-.01Zm-102.83-29.13c17.43,1.94,34.99,4.22,52.3,6.8h.04c19.96,3.15,35.62,4.83,49.27,5.31,7.08.23,16.58-1.65,21.79-6.44,4.4-4.04,7.43-11.88,9-23.27l22.45-162.41.04-.23c2.88-15.76-5.09-28.51-12.79-34.64-18.1-14.42-41.12-18.48-63.39-22.41l-.63-.11c-20.84-3.16-41.97-5.93-62.91-8.24l-15.18,245.64h.01Z"/><path class="cls-1" d="m580,331.1c50.35,1.77,100.47,6.45,150.49,14.05,32.56,5.49,66.31,12.37,96.09,28.87,17.96,9.95,36.17,23.49,46.23,46.42,9.17,20.9,8.75,46.23,4.48,69.01-8.71,47.5-17.42,94.99-26.13,142.49-4.53,21.14-10.71,43.57-24.37,57.96-13.49,14.19-30.8,18.26-47.45,19.7-27,2.33-55.21-3.03-82.43-7.19-41.09-6.22-82.24-10.07-123.6-11.57,2.23-119.91,4.47-239.83,6.7-359.74h0Zm119.51,309.72c14.84,2.34,30.23,4.31,44.85,4.82,7.07.25,17.12-1.61,23.22-7.21,5.25-4.83,8.78-13.42,10.49-25.79,6.72-48.59,13.44-97.18,20.15-145.77,2.94-16.04-3.83-31.15-14.15-39.37-17.52-13.96-39.69-17.76-59.93-21.33-20.9-3.17-41.8-5.86-62.77-8.09-4.86,78.67-9.72,157.34-14.58,236.01,17.61,1.87,35.17,4.12,52.72,6.73h0Z"/><g class="cls-16"><path class="cls-12" d="m542.93,600.96c13.72-.04,27.25,2.05,40.77,4.23,13.97,2.25,27.94,4.54,41.89,6.87,27.93,4.67,55.83,9.5,83.71,14.49-5.5-.99-11.01-1.97-16.51-2.96,33.41,5.99,66.79,12.21,100.11,18.67,31.95,6.19,64.2,11.79,95.81,19.6,17.22,4.25,34.02,9.92,49.59,18.52,8.31,3.72,16.54,4.08,24.69,1.08,8.84-1,16.41-4.91,22.71-11.74,7.57-6.97,13.15-15.2,16.75-24.67,5.55-10,8.97-20.76,10.28-32.29,3.05-23.87,2.2-50.21-8.01-72.39-3.38-6.27-6.76-12.54-10.13-18.82-6.98-10.63-16.27-18.47-27.87-23.54-22.69-12.54-47.82-18.53-73.01-23.71-27.33-5.61-54.7-11.02-82.1-16.29-60.16-11.57-120.47-22.44-180.89-32.61-15.58-2.62-31.16-5.2-46.76-7.72-15.13-2.45-30.27-5.06-45.64-5.01-18.1.06-33.97,14.45-43.03,28.65-6.07,9.46-10.09,19.67-12.04,30.61-3.68,11.79-5.16,23.92-4.43,36.4,1.22,22.59,5.59,47.74,19.74,66.13,11.07,14.38,25,26.56,44.38,26.5h-.01Z"/><path class="cls-8" d="m512.82,656.41c78.26,6.72,155.99,18.17,233.73,29.13,77.59,10.94,155.36,21.43,233.63,26.07,43.81,2.6,87.73,3.31,131.58,1.31,15.81-.72,28.75-11.82,36.88-24.55,5.21-8.11,8.64-16.86,10.32-26.24,3.16-10.11,4.42-20.51,3.8-31.2-1.05-19.36-4.79-40.92-16.92-56.68-9.22-11.99-21.65-23.46-38.04-22.72-78.13,3.56-156.32-1.61-233.96-10.3-78.08-8.74-155.71-20.96-233.57-31.35-43.7-5.84-87.49-11.09-131.42-14.86-7.82.03-14.57,2.51-20.24,7.45-7.15,3.96-12.69,9.66-16.64,17.1-5.21,8.11-8.64,16.86-10.32,26.24-3.16,10.11-4.42,20.51-3.8,31.2,1.05,19.36,4.79,40.92,16.92,56.68,3.68,4.12,7.35,8.24,11.03,12.35,7.73,6.82,16.73,10.28,27.01,10.36h.01Z"/><path class="cls-5" d="m551.57,722.98c51.73-3.09,103.46,1.71,154.39,10.75-4.72-.85-9.44-1.69-14.16-2.54,90.94,16.32,178.87,45.31,268.3,67.94,25.14,6.36,50.42,12.21,75.88,17.15,7.12,3.19,14.18,3.5,21.16.92,7.58-.86,14.06-4.21,19.46-10.06,6.49-5.98,11.27-13.03,14.35-21.15,4.76-8.57,7.69-17.8,8.81-27.67,2.62-20.46,1.89-43.03-6.87-62.05-2.9-5.38-5.79-10.75-8.69-16.13-5.98-9.11-13.94-15.83-23.89-20.18-65.79-12.76-130.14-31.64-194.69-49.43-68.09-18.77-136.84-36.06-207.05-44.82-36.8-4.59-73.95-6.35-110.99-4.13-15.91.95-28.63,11.63-36.88,24.55-5.21,8.11-8.64,16.86-10.32,26.24-3.16,10.11-4.42,20.51-3.8,31.2,1.05,19.36,4.79,40.92,16.92,56.68,9.14,11.87,21.73,23.69,38.04,22.72h.03Z"/></g><path class="cls-19" d="m778.64,475.9l-.03.17-16.44,118.88c-1.15,8.34-3.37,14.08-6.59,17.04-3.81,3.51-10.77,4.88-15.95,4.71-9.99-.34-21.45-1.58-36.07-3.88h-.03c-12.67-1.89-25.52-3.56-38.28-4.98l11.11-179.81c15.33,1.69,30.8,3.72,46.06,6.03l.46.08c16.29,2.88,33.15,5.85,46.39,16.4,5.64,4.49,11.47,13.83,9.36,25.36h.01Z"/></g></svg>